<svg xmlns="http://www.w3.org/2000/svg" xmlns:xlink="http://www.w3.org/1999/xlink" viewBox="0,0,256,256" width="48px" height="48px" fill-rule="nonzero"><g transform="translate(-64,-64) scale(1.5,1.5)"><g fill="none" fill-rule="nonzero" stroke="none" stroke-width="1" stroke-linecap="none" stroke-linejoin="none" stroke-miterlimit="10" stroke-dasharray="" stroke-dashoffset="0" font-family="none" font-weight="none" font-size="none" text-anchor="none" style="mix-blend-mode: normal"><g transform="scale(2.56,2.56)"><path d="M70,18.988h-39c-6.6,0 -12,5.4 -12,12v39c0,6.6 5.4,12 12,12h39c6.6,0 12,-5.4 12,-12v-39c0,-6.6 -5.4,-12 -12,-12z" fill="#3070b7" stroke="#78a2d2" stroke-linecap="butt" stroke-linejoin="miter"></path><path d="M70,81.988h-39c-6.6,0 -12,-5.4 -12,-12v-12.501c4.141,-4.02 9.787,-6.499 16.014,-6.499h31c6.213,0 11.847,2.468 15.986,6.472v12.528c0,6.6 -5.4,12 -12,12z" fill="#3a83c1" stroke="none" stroke-linecap="butt" stroke-linejoin="miter"></path><path d="M70,81.988h-39c-6.6,0 -12,-5.4 -12,-12v-4.501c4.141,-4.02 9.787,-6.499 16.014,-6.499h31c6.213,0 11.847,2.468 15.986,6.472v4.528c0,6.6 -5.4,12 -12,12z" fill="#40a6dd" stroke="none" stroke-linecap="butt" stroke-linejoin="miter"></path><path d="M70,81.988h-39c-5.528,0 -10.201,-3.794 -11.578,-8.903c4.099,-3.783 9.574,-6.096 15.592,-6.096h31c6.006,0 11.472,2.304 15.569,6.074c-1.368,5.12 -6.047,8.925 -11.583,8.925z" fill="#31c4f3" stroke="none" stroke-linecap="butt" stroke-linejoin="miter"></path><path d="M70,82.988h-39c-7.18,0 -13,-5.82 -13,-13v-39c0,-7.18 5.82,-13 13,-13h39c7.18,0 13,5.82 13,13v39c0,7.18 -5.821,13 -13,13zM20,30.988v39c0,6.075 4.925,11 11,11h39c6.075,0 11,-4.925 11,-11v-39c0,-6.075 -4.925,-11 -11,-11h-39c-6.076,0 -11,4.925 -11,11z" fill="#1f212b" stroke="none" stroke-linecap="butt" stroke-linejoin="miter"></path><path d="M67.162,77.988h-33.325c-5.985,0 -10.837,-4.852 -10.837,-10.837v-33.326c0,-5.985 4.852,-10.837 10.837,-10.837h33.663c0.276,0 0.5,0.224 0.5,0.5c0,0.276 -0.224,0.5 -0.5,0.5h-33.663c-5.433,0 -9.837,4.404 -9.837,9.837v33.325c0,5.433 4.405,9.838 9.838,9.838h33.325c5.433,0 9.837,-4.404 9.837,-9.837v-18.663c0,-0.276 0.224,-0.5 0.5,-0.5c0.276,0 0.5,0.224 0.5,0.5v18.662c0,5.986 -4.853,10.838 -10.838,10.838zM77.5,45.567c-0.276,0 -0.5,-0.224 -0.5,-0.5v-4c0,-0.276 0.224,-0.5 0.5,-0.5c0.276,0 0.5,0.224 0.5,0.5v4c0,0.277 -0.224,0.5 -0.5,0.5zM77.5,39.567c-0.276,0 -0.5,-0.224 -0.5,-0.5v-2c0,-0.276 0.224,-0.5 0.5,-0.5c0.276,0 0.5,0.224 0.5,0.5v2c0,0.277 -0.224,0.5 -0.5,0.5z" fill="#1f212b" stroke="none" stroke-linecap="butt" stroke-linejoin="miter"></path><circle cx="38" cy="45" r="8.5" fill="#f9e65c" stroke="none" stroke-linecap="butt" stroke-linejoin="miter"></circle><circle cx="38" cy="45" r="8.5" fill="none" stroke="#1f212b" stroke-linecap="round" stroke-linejoin="round"></circle><path d="M62,45.5c-1.556,0 -3.02,0.381 -4.316,1.044c-1.533,-3.554 -5.067,-6.044 -9.184,-6.044c-5.523,0 -10,4.477 -10,10c0,0.027 0.004,0.052 0.004,0.079c-3.393,0.485 -6.004,3.394 -6.004,6.921c0,3.866 3.134,7 7,7c2.922,0 18.75,0 22.5,0c5.247,0 9.5,-4.253 9.5,-9.5c0,-5.247 -4.253,-9.5 -9.5,-9.5z" fill="#ffffff" stroke="none" stroke-linecap="butt" stroke-linejoin="miter"></path><path d="M62,45.5c-1.556,0 -3.02,0.381 -4.316,1.044c-1.533,-3.554 -5.067,-6.044 -9.184,-6.044c-5.523,0 -10,4.477 -10,10c0,0.027 0.004,0.052 0.004,0.079c-3.393,0.485 -6.004,3.394 -6.004,6.921c0,3.866 3.134,7 7,7c2.922,0 18.75,0 22.5,0c5.247,0 9.5,-4.253 9.5,-9.5c0,-5.247 -4.253,-9.5 -9.5,-9.5z" fill="none" stroke="#1f212b" stroke-linecap="round" stroke-linejoin="round"></path></g></g></g></svg>